# xmcd
#
# Track frame offsets:
#	150
#	15741
#	27699
#	41169
#
# Disc length: 793 seconds
#
# Revision: 0
# Processed by: cddbd v1.5.1PL0 Copyright (c) Steve Scherf et al.
# Submitted via: audiograbber 1.83.01
#
DISCID=30031704
DTITLE=Donots - Superhero_MCD
DYEAR=2001
DGENRE=Punk Rock
TTITLE0=Superhero
TTITLE1=Dont you know
TTITLE2=Hot Rod
TTITLE3=At 23
EXTD=
EXTT0=
EXTT1=
EXTT2=
EXTT3=
PLAYORDER=
